<svg width="49" height="54" viewBox="0 0 49 54" fill="none" xmlns="http://www.w3.org/2000/svg">
<path d="M16.9008 18.5195C13.6735 15.4003 8.52547 15.4968 5.41793 18.7353C2.41794 21.8618 2.40763 26.7953 5.39395 29.9348C8.50641 33.207 13.6932 33.3052 16.9267 30.1525C20.1996 26.9614 20.1876 21.6963 16.9008 18.5195Z" fill="#FF0051" stroke="#FF0051" stroke-width="0.4"/>
<path d="M41.949 18.5195C38.7217 15.4003 33.5736 15.4968 30.4661 18.7353C27.4661 21.8618 27.4558 26.7953 30.4421 29.9348C33.5546 33.207 38.7414 33.3052 41.9748 30.1525C45.2477 26.9614 45.2358 21.6963 41.949 18.5195Z" fill="#FF0051" stroke="#FF0051" stroke-width="0.4"/>
<path d="M29.9029 5.65437C26.6756 2.53512 21.5276 2.63162 18.42 5.87019C15.42 8.99668 15.4097 13.9301 18.3961 17.0697C21.5085 20.3418 26.6953 20.44 29.9288 17.2874C33.2017 14.0963 33.1897 8.83115 29.9029 5.65437Z" fill="#FF0051" stroke="#FF0051" stroke-width="0.4"/>
<path d="M29.9029 31.3847C26.6756 28.2654 21.5276 28.3619 18.42 31.6005C15.42 34.727 15.4097 39.6604 18.3961 42.8C21.5085 46.0721 26.6953 46.1703 29.9288 43.0177C33.2017 39.8266 33.1897 34.5615 29.9029 31.3847Z" fill="#FF0051" stroke="#FF0051" stroke-width="0.4"/>
<path d="M17.5557 43.8123L0.151794 26.0318L17.1643 45.8644C20.7097 49.9976 27.0847 50.06 30.7104 45.9971L48.5273 26.0318L30.2934 43.9381C26.7429 47.4249 21.0366 47.3685 17.5557 43.8123Z" fill="#FF0051" stroke="#FF0051" stroke-width="0.4"/>
<path d="M24.0528 23.8181C24.3789 23.8182 24.6045 24.0652 24.6046 24.323C24.6046 24.5808 24.379 24.8278 24.0528 24.8279C23.7266 24.8279 23.5011 24.5808 23.5011 24.323C23.5012 24.0652 23.7267 23.8181 24.0528 23.8181Z" fill="#FF0051" stroke="#FF0051"/>
</svg>
