<svg width="187" height="206" viewBox="0 0 187 206" fill="none" xmlns="http://www.w3.org/2000/svg">
<path d="M48.7222 131.358L81.0607 99.8278C84.6945 96.2848 84.6818 90.4396 81.0325 86.9125L48.693 55.6556C45.1098 52.1923 39.3945 52.3 35.9443 55.8957L5.95306 87.1516C2.62222 90.6229 2.61028 96.0999 5.92594 99.5856L35.9182 131.117C39.3739 134.75 45.1322 134.858 48.7222 131.358Z" fill="white" stroke="#FF0051" stroke-width="0.4"/>
<path d="M144.861 131.358L177.199 99.8278C180.833 96.2848 180.82 90.4396 177.171 86.9125L144.832 55.6556C141.248 52.1923 135.533 52.3 132.083 55.8957L102.092 87.1516C98.7608 90.6229 98.7488 96.0999 102.064 99.5856L132.057 131.117C135.512 134.75 141.271 134.858 144.861 131.358Z" fill="white" stroke="#FF0051" stroke-width="0.4"/>
<path d="M98.6261 81.9798L130.964 50.4497C134.598 46.9067 134.586 41.0615 130.936 37.5344L98.5968 6.27744C95.0136 2.81419 89.2983 2.92185 85.8481 6.51757L55.8569 37.7734C52.526 41.2447 52.5141 46.7217 55.8298 50.2075L85.822 81.7387C89.2777 85.3717 95.036 85.4801 98.6261 81.9798Z" fill="white" stroke="#FF0051" stroke-width="0.4"/>
<path d="M98.6261 180.737L130.964 149.206C134.598 145.663 134.586 139.818 130.936 136.291L98.5968 105.034C95.0136 101.571 89.2983 101.679 85.8481 105.274L55.8569 136.53C52.526 140.001 52.5141 145.478 55.8298 148.964L85.822 180.495C89.2777 184.128 95.036 184.237 98.6261 180.737Z" fill="white" stroke="#FF0051" stroke-width="0.4"/>
<path d="M85.0623 186.442L0.366821 99.9139L84.6709 198.193C88.2163 202.326 94.5912 202.388 98.2169 198.325L186.039 99.9139L97.8 186.568C94.2494 190.054 88.5432 189.998 85.0623 186.442Z" fill="white" stroke="#FF0051" stroke-width="0.4"/>
<path d="M92.1021 89.9982C94.0766 89.9982 95.638 91.5224 95.6382 93.3556C95.6382 95.1889 94.0767 96.714 92.1021 96.714C90.1275 96.7139 88.5659 95.1888 88.5659 93.3556C88.5661 91.5225 90.1276 89.9983 92.1021 89.9982Z" fill="white" stroke="#FF0051"/>
</svg>
